<?xml version="1.0" encoding="UTF-8"?>
<svg id="_Слой_1" data-name="Слой 1" xmlns="http://www.w3.org/2000/svg" viewBox="0 0 488 648">
  <defs>
    <style>
      .cls-1 {
        fill: #fff;
      }
    </style>
  </defs>
  <path d="M475,0l13,13v621l-14,14H14l-14-14V13L13,0h462ZM20,4.01c-3.78-1.41-14.51,10.19-14.98,12.51-.34,1.7.09,3.71-.01,5.47l4.99-8.49,10-9.49ZM29.76,4.26c-5.76.67-17.03,7.35-17.81,13.19l.57,614.53c4.1,4.77,8.53,8.46,14.67,10.33l430.37.74c4.79-.16,15.99-6.12,17.69-10.31l.82-614.31c-.44-7.58-9.21-11.23-15.25-13.75l-431.06-.42ZM482.99,21c.15-2.46.36-4.28-.94-6.55-1.36-2.38-10.64-11.49-14.05-10.43l8.51,6.98,6.48,10.01ZM479,21v605l4.04-11.46-.49-585.59-3.55-7.95ZM9,625V22l-2.94,6.56c-1.47,196.87-2.36,394.66.45,591.43l2.49,5.01ZM19.99,642.01l-7.39-5.12-7.6-11.89c-.06,2.8-.5,5.04.94,7.55.36.63,9.44,9.61,10.07,9.93.89.45,4.11,1.51,3.97-.47ZM468,642.99c3.41,1.06,12.69-8.05,14.05-10.43s1.08-4.09.94-6.55l-6.48,10.01-8.51,6.98Z"/>
  <polygon class="cls-1" points="14 648 0 648 0 634 14 648"/>
  <polygon class="cls-1" points="488 634 488 648 474 648 488 634"/>
  <polygon class="cls-1" points="13 0 0 13 0 0 13 0"/>
  <polygon class="cls-1" points="475 0 488 0 488 13 475 0"/>
  <path class="cls-1" d="M29.76,4.26l431.06.42c6.03,2.52,14.8,6.17,15.25,13.75l-.82,614.31c-1.7,4.19-12.9,10.15-17.69,10.31l-430.37-.74c-6.13-1.88-10.56-5.56-14.67-10.33L11.95,17.45c.78-5.83,12.05-12.52,17.81-13.19Z"/>
  <polygon class="cls-1" points="479 21 482.55 28.95 483.04 614.54 479 626 479 21"/>
  <path class="cls-1" d="M9,625l-2.49-5.01c-2.8-196.77-1.92-394.56-.45-591.43l2.94-6.56v603Z"/>
  <path class="cls-1" d="M20,4.01l-10,9.49-4.99,8.49c.1-1.76-.32-3.78.01-5.47.46-2.32,11.19-13.93,14.98-12.51Z"/>
  <path class="cls-1" d="M19.99,642.01c.14,1.98-3.08.91-3.97.47-.63-.31-9.71-9.29-10.07-9.93-1.43-2.51-.99-4.75-.94-7.55l7.6,11.89,7.39,5.12Z"/>
  <path class="cls-1" d="M482.99,21l-6.48-10.01-8.51-6.98c3.41-1.06,12.69,8.05,14.05,10.43s1.08,4.09.94,6.55Z"/>
  <path class="cls-1" d="M468,642.99l8.51-6.98,6.48-10.01c.15,2.46.36,4.28-.94,6.55-1.36,2.38-10.64,11.49-14.05,10.43Z"/>
</svg>